<svg version="1" xmlns="http://www.w3.org/2000/svg" width="682.667" height="682.667" viewBox="0 0 512.000000 512.000000"><path d="M128.8 57c-33.2 6-59.7 30.1-69 62.6-3.3 11.4-3.3 33.4 0 44.8 8.6 30.1 31.7 52.8 62.2 61.2 9.2 2.6 32.8 2.6 42 0 31-8.6 54-31.6 62.6-62.6 2.8-10.1 2.6-32.9-.4-43.4-8.4-29.3-31.3-52.3-60.3-60.6-8.3-2.4-29-3.5-37.1-2zM360 57c-36.8 3.4-67.9 31.1-75.5 67.2-2 9.4-2 26.2 0 35.6 7.5 35.9 38.8 63.9 74.8 67 26.4 2.3 48.8-5.3 67.6-23.2 17.5-16.8 26.2-37.1 26.2-61.6 0-12.3-1.9-22.2-6.2-32.5-11.7-28.1-39.7-49.6-67.7-52-3.7-.3-7.8-.7-9.2-.9-1.4-.1-5.9.1-10 .4zM128.3 285.4c-34 6.5-59.4 29.9-68.4 63.1-3.1 11.4-3.1 31.6 0 43 8.3 30.6 31.1 53.4 61.6 61.6 11.4 3.1 31.6 3.1 43 0 30.5-8.2 53.4-31.1 61.6-61.6 3.1-11.4 3.1-31.6 0-43-8.3-30.6-31.5-53.7-61.6-61.5-10.3-2.7-26.7-3.4-36.2-1.6zM351.5 285.7c-41 8.7-65.5 47-60.6 94.5 4.3 40.4 25.9 66.4 60.2 72.4 11.3 2 31.3 1.4 40.4-1.1 25.2-6.8 45.4-29.6 45.5-51.3 0-5.9-.2-6.5-3.9-10.5-3.9-4.1-4.1-4.2-10.4-4.2-8.5 0-10.3 1.7-15.8 14.9-7.4 17.4-17.8 25.6-34.7 27.2-23.2 2.2-40.4-11.6-45.9-36.7-2.4-11.2-2.2-32 .6-43.3 6.4-26.5 25.6-40.8 49.2-36.8 13.1 2.3 19.9 7.4 29 22.3 3.4 5.5 7.5 11 9.2 12.5 2.7 2.3 3.8 2.6 8.9 2.2 4.7-.3 6.4-1 8.8-3.3 13.9-13.3-4-43.3-32.7-55-13.3-5.4-33.2-7-47.8-3.8z"/></svg>